<svg width="24"
    height="24"
    viewBox="0 0 24 24"
    fill="none"
    xmlns="http://www.w3.org/2000/svg">
    <g clip-path="url(#clip0_10182_16822)">
        <path
            d="M17.4136 4.9C17.2227 4.35455 16.7045 4 16.0909 4H6.28636C5.65909 4 5.15455 4.35455 4.95 4.9L3 10.5045L3.01364 18.0182C3.01364 18.5364 3.43636 19 3.95455 19H4.8C5.31818 19 5.72727 18.4818 5.72727 17.9636V16.2727H16.6364V17.9636C16.6364 18.4818 17.0591 19 17.5773 19H18.4091C18.9273 19 19.35 18.5364 19.35 18.0182L19.3636 16.15V10.5045L17.4136 4.9ZM6.28636 5.36364H16.0909L17.4955 9.45455H4.88182L6.28636 5.36364ZM5.72727 13.5455C4.97727 13.5455 4.36364 12.9318 4.36364 12.1818C4.36364 11.4318 4.97727 10.8182 5.72727 10.8182C6.47727 10.8182 7.09091 11.4318 7.09091 12.1818C7.09091 12.9318 6.47727 13.5455 5.72727 13.5455ZM16.6364 13.5455C15.8864 13.5455 15.2727 12.9318 15.2727 12.1818C15.2727 11.4318 15.8864 10.8182 16.6364 10.8182C17.3864 10.8182 18 11.4318 18 12.1818C18 12.9318 17.3864 13.5455 16.6364 13.5455Z"
            fill="white" />
    </g>
    <defs>
        <clipPath id="clip0_10182_16822">
            <rect
                width="24"
                height="24"
                fill="white" />
        </clipPath>
    </defs>
</svg>
