<svg width="24"
    height="24"
    viewBox="0 0 24 24"
    fill="none"
    xmlns="http://www.w3.org/2000/svg">
    <g clip-path="url(#clip0_10182_16851)">
        <path
            d="M15 11C16.66 11 17.99 9.66 17.99 8C17.99 6.34 16.66 5 15 5C14.68 5 14.37 5.05 14.09 5.14C14.66 5.95 14.99 6.93 14.99 8C14.99 9.07 14.65 10.04 14.09 10.86C14.37 10.95 14.68 11 15 11ZM10 11C11.66 11 12.99 9.66 12.99 8C12.99 6.34 11.66 5 10 5C8.34 5 7 6.34 7 8C7 9.66 8.34 11 10 11ZM16.62 13.16C17.45 13.89 18 14.82 18 16V18H21V16C21 14.46 18.63 13.51 16.62 13.16ZM10 13C8 13 4 14 4 16V18H16V16C16 14 12 13 10 13Z"
            fill="#FFF1E5" />
    </g>
    <defs>
        <clipPath id="clip0_10182_16851">
            <rect
                width="24"
                height="24"
                fill="white" />
        </clipPath>
    </defs>
</svg>
